<svg width="1000" height="360" viewBox="0 0 1000 360" fill="none" xmlns="http://www.w3.org/2000/svg" role="img" aria-labelledby="title desc">
  <title id="title">Tobias Inzinger</title>
  <desc id="desc">Computer Science student at TUM</desc>
  <defs>
    <linearGradient id="bg" x1="0" y1="0" x2="1000" y2="360" gradientUnits="userSpaceOnUse">
      <stop stop-color="#07080d"/>
      <stop offset="0.46" stop-color="#101522"/>
      <stop offset="1" stop-color="#071d22"/>
    </linearGradient>
    <linearGradient id="edge" x1="44" y1="42" x2="956" y2="318" gradientUnits="userSpaceOnUse">
      <stop stop-color="#7dffd1"/>
      <stop offset="0.48" stop-color="#43c7ff"/>
      <stop offset="1" stop-color="#ffb547"/>
    </linearGradient>
    <radialGradient id="glowA" cx="0" cy="0" r="1" gradientUnits="userSpaceOnUse" gradientTransform="translate(706 104) rotate(128) scale(330 210)">
      <stop stop-color="#43c7ff" stop-opacity="0.55"/>
      <stop offset="1" stop-color="#43c7ff" stop-opacity="0"/>
    </radialGradient>
    <radialGradient id="glowB" cx="0" cy="0" r="1" gradientUnits="userSpaceOnUse" gradientTransform="translate(218 282) rotate(-25) scale(300 190)">
      <stop stop-color="#7dffd1" stop-opacity="0.38"/>
      <stop offset="1" stop-color="#7dffd1" stop-opacity="0"/>
    </radialGradient>
    <pattern id="grid" width="34" height="34" patternUnits="userSpaceOnUse">
      <path d="M34 0H0V34" stroke="#f4f7ef" stroke-opacity="0.055"/>
    </pattern>
    <filter id="soft">
      <feGaussianBlur stdDeviation="18"/>
    </filter>
  </defs>

  <rect width="1000" height="360" rx="28" fill="url(#bg)"/>
  <rect width="1000" height="360" rx="28" fill="url(#grid)"/>
  <rect width="1000" height="360" rx="28" fill="url(#glowA)"/>
  <rect width="1000" height="360" rx="28" fill="url(#glowB)"/>

  <path d="M62 289C170 203 260 211 347 250C451 296 540 302 648 214C732 146 828 116 934 155" stroke="#43c7ff" stroke-opacity="0.34" stroke-width="2"/>
  <path d="M64 233C185 160 287 163 394 197C507 233 603 235 704 157C789 92 864 83 936 105" stroke="#7dffd1" stroke-opacity="0.25" stroke-width="2"/>

  <g filter="url(#soft)">
    <circle cx="737" cy="108" r="48" fill="#43c7ff" fill-opacity="0.34"/>
    <circle cx="199" cy="275" r="58" fill="#7dffd1" fill-opacity="0.24"/>
  </g>

  <rect x="42" y="42" width="916" height="276" rx="20" stroke="url(#edge)" stroke-opacity="0.78" stroke-width="2"/>
  <path d="M43 88H957" stroke="#f4f7ef" stroke-opacity="0.12"/>

  <circle cx="75" cy="65" r="7" fill="#ff5d73"/>
  <circle cx="99" cy="65" r="7" fill="#ffb547"/>
  <circle cx="123" cy="65" r="7" fill="#7dffd1"/>

  <text x="70" y="128" fill="#7dffd1" font-family="ui-monospace, SFMono-Regular, Menlo, Consolas, monospace" font-size="18">root@tobiinzi:~/profile</text>
  <text x="70" y="190" fill="#f4f7ef" font-family="Inter, ui-sans-serif, system-ui, -apple-system, BlinkMacSystemFont, Segoe UI, sans-serif" font-size="58" font-weight="800" letter-spacing="0">Tobias Inzinger</text>
  <text x="72" y="236" fill="#aeb8b7" font-family="ui-monospace, SFMono-Regular, Menlo, Consolas, monospace" font-size="24">Computer Science student at TUM</text>

  <g transform="translate(724 133)">
    <rect x="0" y="0" width="172" height="92" rx="14" fill="#08090d" fill-opacity="0.56" stroke="#f4f7ef" stroke-opacity="0.12"/>
    <path d="M34 58L62 34L90 58L118 34L146 58" stroke="#ffb547" stroke-width="4" stroke-linecap="round" stroke-linejoin="round"/>
    <circle cx="34" cy="58" r="6" fill="#7dffd1"/>
    <circle cx="62" cy="34" r="6" fill="#43c7ff"/>
    <circle cx="90" cy="58" r="6" fill="#ffb547"/>
    <circle cx="118" cy="34" r="6" fill="#43c7ff"/>
    <circle cx="146" cy="58" r="6" fill="#7dffd1"/>
  </g>

  <text x="70" y="286" fill="#ffb547" font-family="ui-monospace, SFMono-Regular, Menlo, Consolas, monospace" font-size="18">discord: tobiinzi</text>
  <text x="788" y="286" fill="#f4f7ef" fill-opacity="0.62" font-family="ui-monospace, SFMono-Regular, Menlo, Consolas, monospace" font-size="16">tobiinzi.com</text>
</svg>
