<svg width="760" height="118" viewBox="0 0 760 118" fill="none" xmlns="http://www.w3.org/2000/svg" role="img" aria-labelledby="title desc">
  <title id="title">tobiinzi.com</title>
  <desc id="desc">Website link option: constellation</desc>
  <rect width="760" height="118" rx="18" fill="#07080d"/>
  <path d="M54 92L166 38L280 74L397 32L536 70L696 28" stroke="#43c7ff" stroke-opacity="0.42" stroke-width="1.5"/>
  <path d="M80 26L210 82L331 48L475 88L642 44" stroke="#7dffd1" stroke-opacity="0.28" stroke-width="1.5"/>
  <g fill="#f4f7ef">
    <circle cx="54" cy="92" r="3"/><circle cx="166" cy="38" r="3"/><circle cx="280" cy="74" r="3"/>
    <circle cx="397" cy="32" r="3"/><circle cx="536" cy="70" r="3"/><circle cx="696" cy="28" r="3"/>
  </g>
  <g fill="#7dffd1">
    <circle cx="80" cy="26" r="2"/><circle cx="210" cy="82" r="2"/><circle cx="331" cy="48" r="2"/>
    <circle cx="475" cy="88" r="2"/><circle cx="642" cy="44" r="2"/>
  </g>
  <rect x="238" y="39" width="284" height="42" rx="21" fill="#08090d" fill-opacity="0.86" stroke="#f4f7ef" stroke-opacity="0.13"/>
  <text x="380" y="66" text-anchor="middle" fill="#f4f7ef" font-family="ui-monospace, SFMono-Regular, Menlo, Consolas, monospace" font-size="24" font-weight="700">tobiinzi.com</text>
  <text x="36" y="30" fill="#ffb547" font-family="ui-monospace, SFMono-Regular, Menlo, Consolas, monospace" font-size="12">COORDINATES LOCKED</text>
  <text x="586" y="96" fill="#43c7ff" fill-opacity="0.75" font-family="ui-monospace, SFMono-Regular, Menlo, Consolas, monospace" font-size="12">personal node</text>
</svg>
